<svg width="501" height="223" viewBox="0 0 501 223" fill="none" xmlns="http://www.w3.org/2000/svg">
<rect x="393" y="124" width="98" height="98" fill="#BAFDA7" stroke="black" stroke-width="2"/>
<rect x="295" y="124" width="98" height="98" fill="#FBFF95" stroke="black" stroke-width="2"/>
<rect x="197" y="124" width="98" height="98" fill="#FBFF95" stroke="black" stroke-width="2"/>
<rect x="295" y="26" width="98" height="98" fill="#C6DAFF" stroke="black" stroke-width="2"/>
<rect x="197" y="26" width="98" height="98" fill="#C6DAFF" stroke="black" stroke-width="2"/>
<rect x="99" y="26" width="98" height="98" fill="#C6DAFF" stroke="black" stroke-width="2"/>
<path d="M239.48 204V140.28H249.29V204H239.48Z" fill="black"/>
<path d="M360.98 195.9L363.5 195.63L363.68 202.92C356.84 204.3 350.78 204.99 345.5 204.99C338.84 204.99 334.04 203.16 331.1 199.5C328.22 195.84 326.78 189.99 326.78 181.95C326.78 165.99 333.29 158.01 346.31 158.01C358.91 158.01 365.21 164.88 365.21 178.62L364.58 185.64H336.68C336.74 189.36 337.55 192.09 339.11 193.83C340.67 195.57 343.58 196.44 347.84 196.44C352.1 196.44 356.48 196.26 360.98 195.9ZM355.58 178.08C355.58 173.64 354.86 170.55 353.42 168.81C352.04 167.01 349.67 166.11 346.31 166.11C342.95 166.11 340.49 167.04 338.93 168.9C337.43 170.76 336.65 173.82 336.59 178.08H355.58Z" fill="black"/>
<path d="M140.75 102H130.94V38.28H140.75V59.34C145.19 57.12 149.3 56.01 153.08 56.01C159.08 56.01 163.16 57.72 165.32 61.14C167.54 64.5 168.65 70.08 168.65 77.88V102H158.84V78.15C158.84 73.29 158.33 69.84 157.31 67.8C156.29 65.76 154.13 64.74 150.83 64.74C147.95 64.74 145.07 65.22 142.19 66.18L140.75 66.72V102Z" fill="black"/>
<path d="M355.15 65.37H342.73V85.17C342.73 88.83 343 91.26 343.54 92.46C344.08 93.66 345.46 94.26 347.68 94.26L355.06 93.99L355.51 101.82C351.49 102.6 348.43 102.99 346.33 102.99C341.23 102.99 337.72 101.82 335.8 99.48C333.94 97.14 333.01 92.73 333.01 86.25V65.37H327.25V57H333.01V43.95H342.73V57H355.15V65.37Z" fill="black"/>
<path d="M264.24 70.86V91.38C264.3 92.7 264.63 93.69 265.23 94.35C265.89 94.95 266.88 95.34 268.2 95.52L267.93 102.99C262.77 102.99 258.78 101.88 255.96 99.66C251.16 101.88 246.33 102.99 241.47 102.99C232.53 102.99 228.06 98.22 228.06 88.68C228.06 84.12 229.26 80.82 231.66 78.78C234.12 76.74 237.87 75.51 242.91 75.09L254.52 74.1V70.86C254.52 68.46 253.98 66.78 252.9 65.82C251.88 64.86 250.35 64.38 248.31 64.38C244.47 64.38 239.67 64.62 233.91 65.1L231.03 65.28L230.67 58.35C237.21 56.79 243.21 56.01 248.67 56.01C254.19 56.01 258.15 57.21 260.55 59.61C263.01 61.95 264.24 65.7 264.24 70.86ZM244.08 82.02C239.94 82.38 237.87 84.63 237.87 88.77C237.87 92.91 239.7 94.98 243.36 94.98C246.36 94.98 249.54 94.5 252.9 93.54L254.52 93V81.03L244.08 82.02Z" fill="black"/>
<path d="M461.54 155.94C461.54 159.96 461.03 163.02 460.01 165.12C459.05 167.22 457.04 169.47 453.98 171.87C450.92 174.27 448.88 176.19 447.86 177.63C446.9 179.01 446.42 180.51 446.42 182.13V185.1H438.5C437.06 183.24 436.34 180.9 436.34 178.08C436.34 176.58 436.91 175.08 438.05 173.58C439.19 172.08 441.23 170.13 444.17 167.73C447.11 165.27 449.06 163.38 450.02 162.06C450.98 160.68 451.46 158.88 451.46 156.66C451.46 152.28 448.28 150.09 441.92 150.09C438.32 150.09 434.54 150.51 430.58 151.35L428.51 151.8L427.97 144.33C433.55 142.35 438.62 141.36 443.18 141.36C449.48 141.36 454.1 142.53 457.04 144.87C460.04 147.15 461.54 150.84 461.54 155.94ZM436.97 204V191.4H447.41V204H436.97Z" fill="black"/>
<rect x="1" y="26" width="98" height="98" fill="#C6DAFF" stroke="black" stroke-width="2"/>
<path d="M19.43 57H29.06L36.17 93.63H37.97L46.52 57.9H56.6L65.15 93.63H66.95L73.97 57H83.69L74.15 102H58.58L51.56 71.13L44.54 102H28.97L19.43 57Z" fill="black"/>
</svg>
