<svg width="44" height="44" viewBox="0 0 44 44" fill="none" xmlns="http://www.w3.org/2000/svg">
<circle cx="22" cy="22" r="22" fill="black"/>
<rect x="2" y="2" width="40" height="40" rx="20" fill="#E5E5EA"/>
<path fill-rule="evenodd" clip-rule="evenodd" d="M28.0002 18C28.0002 21.3137 25.314 24 22.0002 24C18.6865 24 16.0002 21.3137 16.0002 18C16.0002 14.6863 18.6865 12 22.0002 12C25.314 12 28.0002 14.6863 28.0002 18ZM26.0002 18C26.0002 20.2091 24.2094 22 22.0002 22C19.7911 22 18.0002 20.2091 18.0002 18C18.0002 15.7909 19.7911 14 22.0002 14C24.2094 14 26.0002 15.7909 26.0002 18Z" fill="black"/>
<path d="M22.0002 27C15.5259 27 10.0095 30.8284 7.9082 36.192C8.4201 36.7004 8.95934 37.1812 9.52353 37.6321C11.0883 32.7077 15.997 29 22.0002 29C28.0035 29 32.9122 32.7077 34.477 37.6321C35.0412 37.1812 35.5804 36.7004 36.0923 36.1921C33.991 30.8284 28.4746 27 22.0002 27Z" fill="black"/>
</svg>
